<svg xmlns="http://www.w3.org/2000/svg" width="396.2597255061087" height="263.9700073242187"
  viewBox="0 0 350 233.1539054227006" class="css-1j8o68f">
  <defs id="SvgjsDefs1011"></defs>
  <g id="SvgjsG1012" featurekey="symbolFeature-0"
    transform="matrix(2.50097159256202,0,0,2.50097159256202,94.93230352585711,-10.349820683844428)" fill="#FFFFFF">
    <title xmlns="http://www.w3.org/2000/svg">eps, vector, ai, cdr, svg, files copy</title>
    <g xmlns="http://www.w3.org/2000/svg" data-name="outline black">
      <path
        d="M37,58.06a.86.86,0,0,1-.35-.06A1,1,0,0,1,36,57l1.27-14.1a1,1,0,0,1,.55-.8,1,1,0,0,1,1,0L50.9,49.43a1,1,0,0,1-.54,1.86l-8-.17-4.58,6.52A1,1,0,0,1,37,58.06Zm2.12-13.41-.79,8.78,2.73-3.9a1,1,0,0,1,.84-.42l4.76.1Z">
      </path>
      <path
        d="M57,56.11a1,1,0,0,1-1-.93A18.57,18.57,0,0,0,39.07,38.05a1,1,0,0,1,.16-2A20.61,20.61,0,0,1,58,55,1,1,0,0,1,57,56.11Z">
      </path>
      <path
        d="M18.09,55.84H18a1,1,0,0,1-.92-1.08A20.52,20.52,0,0,1,35,36.14a1,1,0,0,1,.24,2,18.5,18.5,0,0,0-16.18,16.8A1,1,0,0,1,18.09,55.84Z">
      </path>
      <path
        d="M20,59.85h0l-4,0a1,1,0,0,1-.7-.29,1,1,0,0,1-.29-.71l0-4a1,1,0,0,1,1-1l4,0a1,1,0,0,1,1,1l0,4a1,1,0,0,1-.3.7A1,1,0,0,1,20,59.85Zm-3-2,2,0v-2l-2,0Z">
      </path>
      <path
        d="M59,60.13h0l-4,0a1,1,0,0,1-1-1l0-4a1,1,0,0,1,.3-.71A1,1,0,0,1,55,54.1l4,0a1,1,0,0,1,1,1l0,4A1,1,0,0,1,59,60.13Zm-3-2,2,0v-2l-2,0Z">
      </path>
      <path
        d="M39.14,40h0l-4,0a1,1,0,0,1-1-1l0-4a1,1,0,0,1,.3-.7.87.87,0,0,1,.71-.29l4,0a1,1,0,0,1,1,1l0,4A1,1,0,0,1,39.14,40Zm-3-2h2V36h-2Z">
      </path>
      <path d="M50.16,38.07h0l-11-.08a1,1,0,0,1,0-2h0l11,.08a1,1,0,0,1,0,2Z"></path>
      <path d="M35.15,38h0l-11-.08a1,1,0,0,1,0-2h0l11,.08a1,1,0,0,1,0,2Z"></path>
      <path
        d="M22.16,39.87h0A3,3,0,0,1,20,39a3,3,0,0,1,0-4.24,3.07,3.07,0,0,1,2.13-.86,2.94,2.94,0,0,1,2.11.89,3,3,0,0,1-2.13,5.11Zm0-4a1,1,0,0,0-.7.29.92.92,0,0,0-.3.7,1,1,0,0,0,1,1h0a1,1,0,0,0,.7-.29,1,1,0,0,0-.7-1.71Z">
      </path>
      <path
        d="M52.16,40.08h0a3,3,0,0,1-3-3h0A2.94,2.94,0,0,1,50.05,35a3,3,0,0,1,4.24,0,3,3,0,0,1,.87,2.12,3,3,0,0,1-.9,2.12A3,3,0,0,1,52.16,40.08Zm0-4a1,1,0,0,0-1,1h0a1,1,0,0,0,.28.7,1,1,0,0,0,.71.3,1,1,0,0,0,1-1,1,1,0,0,0-1-1Zm-2,1h0Z">
      </path>
      <path
        d="M16,48.14a1,1,0,0,1-.91-.59L4.46,23.84A5,5,0,0,1,7,17.23L28,7.82a1,1,0,1,1,.82,1.82L7.8,19.05a3,3,0,0,0-1.52,4l10.6,23.71a1,1,0,0,1-.5,1.32A1,1,0,0,1,16,48.14Z">
      </path>
      <path
        d="M16.19,37.29a1,1,0,0,1-.63-.22,6.8,6.8,0,0,1-1.94-2.54,7,7,0,0,1,6-9.85,1,1,0,1,1,.12,2,5,5,0,0,0-4.31,7,4.8,4.8,0,0,0,1.38,1.8,1,1,0,0,1-.63,1.78Z">
      </path>
      <path
        d="M20.91,29.46a1,1,0,0,1-.82-.43,7.69,7.69,0,0,1-.8-1.42,9.18,9.18,0,0,1-.57-1.7,9,9,0,0,1,5.11-10.19,8.88,8.88,0,0,1,1.55-.53,1,1,0,0,1,.46,1.94,7.31,7.31,0,0,0-1.19.41,7,7,0,0,0-4,7.92,6.82,6.82,0,0,0,.45,1.34,6.55,6.55,0,0,0,.61,1.09,1,1,0,0,1-.82,1.57Z">
      </path>
      <path
        d="M54.05,32.39a.92.92,0,0,1-.36-.07A1,1,0,0,1,53.12,31l4.69-12.26a3,3,0,0,0-1.74-3.87L33.65,6.33a3,3,0,0,0-3.88,1.74l-9,23.61a1,1,0,0,1-1,.67,1,1,0,0,1-1-1h0a.92.92,0,0,1,.07-.36l9-23.64a5,5,0,0,1,6.46-2.88L56.79,13a5,5,0,0,1,2.89,6.44L55,31.75A1,1,0,0,1,54.05,32.39Z">
      </path>
      <path
        d="M33.35,30.88a7,7,0,1,1,2.52-13.53,6.6,6.6,0,0,1,2.2,1.36,1,1,0,1,1-1.36,1.46,5,5,0,1,0,.12,7.33,1,1,0,0,1,1.38,1.44A7,7,0,0,1,33.35,30.88Z">
      </path>
      <path
        d="M44.15,32.73a7.69,7.69,0,0,1-1.07-.07,1,1,0,1,1,.24-2A7,7,0,1,0,38.24,20a6.79,6.79,0,0,0-.65,1.26,7,7,0,0,0,.76,6.43,6.85,6.85,0,0,0,2.88,2.43,1,1,0,1,1-.82,1.82,8.83,8.83,0,0,1-3.72-3.13,9,9,0,0,1-1-8.27,8.21,8.21,0,0,1,.83-1.62,9,9,0,1,1,7.59,13.84Z">
      </path>
    </g>
  </g>
  <g id="SvgjsG1013" featurekey="nameFeature-0"
    transform="matrix(2.0332844667583485,0,0,2.0332844667583485,-2.9387062476764148,132.00350246404193)" fill="#FFFFFF">
    <path
      d="M9.8242 40.39063 c-4.3555 0 -7.6953 -1.8164 -8.3789 -5.5078 l4.1211 -1.1719 c0.54688 2.2266 2.1484 3.2031 4.2578 3.2031 c1.543 0 3.2031 -0.52734 3.1836 -2.3242 c-0.039063 -2.1875 -2.9883 -2.4219 -6.1523 -3.4961 c-2.4805 -0.82031 -4.9023 -2.0313 -4.9023 -5.4297 c0 -4.0039 3.3203 -5.8203 7.5 -5.8203 c3.7695 0 6.9336 1.4844 7.6367 5.2148 l-3.8086 0.87891 c-0.54688 -2.0117 -2.0313 -2.7734 -3.8086 -2.7734 c-1.5625 0 -3.0469 0.60547 -3.0469 2.0898 c0 1.7773 2.3047 2.1484 4.8242 2.8125 c3.0664 0.82031 6.4453 2.0508 6.4453 6.25 c0 4.4336 -3.7305 6.0742 -7.8711 6.0742 z M35.82980859375 20.215 l5.1563 0 l-8.3008 19.785 l-4.2188 0 l-8.2227 -19.785 l5.1367 0 l5.2148 14.238 z M59.0814609375 20.215 l4.668 0 l0 18.457 c0 7.3828 -4.0039 10.684 -10.215 10.684 c-5.4297 0 -8.5352 -2.3438 -10 -6.1133 l4.043 -1.7773 c1.1328 2.6953 2.9102 4.0234 5.7813 4.0234 c3.7109 0 5.4883 -2.3828 5.4883 -6.4844 l0 -2.7148 c-1.1719 1.8164 -3.5742 3.0664 -6.3086 3.0664 c-4.9023 0 -9.0234 -3.9453 -9.0234 -9.8047 c0 -5.8789 4.1406 -9.7266 9.082 -9.7266 c2.8516 0 5.2539 1.3477 6.3672 3.3203 z M53.7684609375 35.3516 c3.125 0 5.5273 -2.5977 5.5273 -5.8008 s-2.3828 -5.8008 -5.5273 -5.8008 c-3.125 0 -5.5273 2.4609 -5.5273 5.8008 c0 3.3203 2.4414 5.8008 5.5273 5.8008 z M82.09773828125 19.824 c5.1758 0 9.4336 3.8672 9.4336 10.313 s-4.2578 10.313 -9.4336 10.313 c-2.7344 0 -5.1563 -1.1914 -6.3477 -3.2227 l0 12.52 l-4.8828 0 l0 -29.531 l4.6484 0 l0.13672 3.0078 c1.1523 -2.1484 3.6133 -3.3984 6.4453 -3.3984 z M81.02373828125 36.3672 c3.1055 0 5.625 -2.3438 5.625 -6.2305 s-2.5195 -6.2109 -5.625 -6.2109 c-3.1836 0 -5.6641 2.5391 -5.6641 6.2109 c0 3.6914 2.4805 6.2305 5.6641 6.2305 z M112.692953125 34.4531 c0 2.7539 0.23438 4.1406 0.50781 5.0195 l0 0.52734 l-4.6289 0 l-0.46875 -2.2266 c-1.5039 1.8359 -4.0234 2.6172 -6.3477 2.6172 c-3.1445 0 -6.0938 -1.4648 -6.0938 -5.4883 c0 -4.082 2.9883 -5.4688 7.207 -6.3477 l3.3008 -0.68359 c1.3477 -0.29297 1.8555 -0.80078 1.8555 -1.6602 c0 -2.2266 -1.875 -2.9297 -3.6523 -2.9297 c-2.1094 0 -3.75 0.87891 -4.1016 3.2031 l-4.3359 -0.82031 c0.78125 -3.9648 3.7305 -5.8203 8.6914 -5.8203 c3.9648 0 8.0664 1.3281 8.0664 7.0508 l0 7.5586 z M103.259753125 37.0117 c3.0469 0 5 -1.8945 5 -6.2891 l-4.8047 1.2305 c-1.8945 0.41016 -3.125 1.0547 -3.125 2.6172 c0 1.6602 1.3086 2.4414 2.9297 2.4414 z M126.21824296875 40.39063 c-4.3555 0 -7.6953 -1.8164 -8.3789 -5.5078 l4.1211 -1.1719 c0.54688 2.2266 2.1484 3.2031 4.2578 3.2031 c1.543 0 3.2031 -0.52734 3.1836 -2.3242 c-0.039063 -2.1875 -2.9883 -2.4219 -6.1523 -3.4961 c-2.4805 -0.82031 -4.9023 -2.0313 -4.9023 -5.4297 c0 -4.0039 3.3203 -5.8203 7.5 -5.8203 c3.7695 0 6.9336 1.4844 7.6367 5.2148 l-3.8086 0.87891 c-0.54688 -2.0117 -2.0313 -2.7734 -3.8086 -2.7734 c-1.5625 0 -3.0469 0.60547 -3.0469 2.0898 c0 1.7773 2.3047 2.1484 4.8242 2.8125 c3.0664 0.82031 6.4453 2.0508 6.4453 6.25 c0 4.4336 -3.7305 6.0742 -7.8711 6.0742 z M146.5398515625 40 c-3.6523 0 -5.8008 -2.1484 -5.8008 -5.918 l0 -10.098 l-3.9258 0 l0 -3.7695 l1.3281 0 c2.0703 0 3.1055 -0.82031 3.1055 -3.5352 l0 -2.9102 l4.4336 0 l0 6.4453 l4.2188 0 l0 3.7695 l-4.2188 0 l0 9.5703 c0 1.8359 0.95703 2.6953 2.4414 2.6953 l1.7773 0 l0 3.75 l-3.3594 0 z M173.58050390625 29.785 l-0.078125 1.2109 l-14.922 0 c0.19531 3.6914 2.6172 5.4883 5.5078 5.4883 c2.1289 0 3.8281 -1.0547 4.6875 -2.9492 l4.4531 0.72266 c-1.3477 3.8672 -4.8242 6.1328 -9.1016 6.1328 c-6.1914 0 -10.332 -3.7891 -10.332 -10.273 c0 -6.5039 4.2578 -10.313 10.176 -10.313 c5.5078 0 9.5703 3.1641 9.6094 9.9805 z M163.99050390625 23.32 c-2.7344 0 -4.6875 1.3867 -5.2539 4.4141 l10 0 c-0.27344 -2.9297 -2.168 -4.4141 -4.7461 -4.4141 z">
    </path>
  </g>
</svg>